<svg xmlns="http://www.w3.org/2000/svg" width="19" height="19" viewBox="0 0 19 19">
  <g id="Symbol_76" data-name="Symbol 76" transform="translate(-20.398 -81)">
    <path id="Path_1118" data-name="Path 1118" d="M16.593,2.407a8.155,8.155,0,0,0-11.569,0A8.166,8.166,0,0,0,4.18,12.983L.38,16.8a1.3,1.3,0,0,0,0,1.837A1.372,1.372,0,0,0,1.288,19a1.3,1.3,0,0,0,.908-.38L6.017,14.8A8.172,8.172,0,0,0,16.593,2.407ZM15.327,12.688A6.4,6.4,0,1,1,17.184,8.17,6.324,6.324,0,0,1,15.327,12.688Z" transform="translate(20.398 81)" fill="#9daebf"/>
  </g>
</svg>
